<?xml version="1.0" encoding="utf-8"?>
<!-- Generated by IcoMoon.io -->
<!DOCTYPE svg PUBLIC "-//W3C//DTD SVG 1.1//EN" "http://www.w3.org/Graphics/SVG/1.1/DTD/svg11.dtd">
<svg version="1.1" xmlns="http://www.w3.org/2000/svg" xmlns:xlink="http://www.w3.org/1999/xlink" width="32" height="32" viewBox="0 0 32 32">
<path fill="#454545" d="M28 14.8h-3.92c-1.173 0-2.133-0.96-2.107-2.16 0-0.533 0.213-1.040 0.587-1.44l2.773-2.853c0.427-0.507 0.347-1.253-0.16-1.68-0.453-0.373-1.093-0.373-1.52 0l-2.8 2.773c-0.587 0.587-1.493 0.773-2.267 0.48l-0.080-0.027c-0.773-0.32-1.28-1.093-1.28-1.92 0-0.080 0-0.16-0.027-0.24l0.027-3.733c0-0.667-0.533-1.2-1.2-1.2 0 0 0 0 0 0-0.667 0-1.2 0.533-1.2 1.2l-0.027 3.973c-0.027 0.827-0.507 1.547-1.253 1.893-0.053 0.027-0.107 0.053-0.16 0.053-0.773 0.293-1.653 0.080-2.24-0.507l-2.8-2.747c-0.507-0.427-1.253-0.373-1.68 0.133-0.373 0.453-0.373 1.12 0 1.573l2.8 2.827c0.827 0.853 0.8 2.187-0.053 3.013-0.4 0.4-0.933 0.613-1.493 0.613h-3.92c-0.667 0-1.2 0.533-1.2 1.2s0.533 1.2 1.2 1.2l3.973 0.027c1.173 0.027 2.107 0.987 2.107 2.16 0 0.56-0.24 1.093-0.613 1.467l-2.8 2.747c-0.48 0.48-0.48 1.227 0 1.707s1.227 0.48 1.707 0l2.827-2.8c0.587-0.56 1.44-0.747 2.213-0.48l0.133 0.053c0.72 0.32 1.227 1.013 1.253 1.813 0 0.053 0 0.080 0 0.133v3.947c0 0.667 0.533 1.173 1.2 1.2 0.667 0 1.2-0.533 1.2-1.2v-3.92c0-0.053 0-0.080 0-0.133 0.053-0.8 0.56-1.52 1.307-1.84l0.080-0.027c0.773-0.293 1.627-0.107 2.24 0.453l2.827 2.8c0.48 0.453 1.253 0.4 1.707-0.080 0.4-0.453 0.4-1.147 0-1.6l-2.8-2.8c-0.587-0.587-0.773-1.467-0.507-2.24 0.027-0.053 0.053-0.133 0.080-0.187 0.347-0.747 1.067-1.227 1.893-1.227l3.973-0.027c0.667 0 1.2-0.533 1.2-1.2 0-0.64-0.533-1.173-1.2-1.173zM16 20.187c-2.32 0-4.213-1.893-4.213-4.213s1.893-4.187 4.213-4.187 4.213 1.893 4.213 4.213-1.893 4.187-4.213 4.187z"></path>
</svg>
