<?xml version="1.0" encoding="utf-8"?>
<!-- Generator: Adobe Illustrator 22.0.1, SVG Export Plug-In . SVG Version: 6.00 Build 0)  -->
<svg version="1.1" id="Diagram_infographics" xmlns="http://www.w3.org/2000/svg" xmlns:xlink="http://www.w3.org/1999/xlink"
	 x="0px" y="0px" viewBox="0 0 995.3 167.8" style="enable-background:new 0 0 995.3 167.8;" xml:space="preserve">
<style type="text/css">
	.st0{fill:#F96500;}
	.st1{fill:#575756;}
	.st2{fill:#FFFFFF;}
</style>
<path class="st0" d="M132.9,142.4c0,3.7-3,6.8-6.8,6.8H43.6c-3.7,0-6.8-3-6.8-6.8V59.9c0-3.7,3-6.8,6.8-6.8h82.5
	c3.7,0,6.8,3,6.8,6.8V142.4z"/>
<g>
	<path class="st1" d="M256.4,15.4c0.9,0.9,1.4,2.2,1.4,3.8v82.5v0.3c-0.1,8.8-2.3,16.8-6.7,24c-4.3,7.2-10.2,12.8-17.7,16.9
		c-7.4,4.1-15.7,6.1-24.7,6.1c-9.3,0-17.6-2.1-25.2-6.3c-7.5-4.2-13.4-9.9-17.7-17.2c-4.3-7.3-6.4-15.5-6.4-24.5
		c0-8.9,2.1-17,6.4-24.4c4.3-7.3,10.2-13.1,17.7-17.2c7.5-4.2,15.9-6.3,25.2-6.3c8.3,0,15.9,1.7,22.6,5.2c6.7,3.5,12,8.3,15.9,14.3
		V19.1c0-1.6,0.5-2.9,1.5-3.8c1-0.9,2.3-1.4,3.8-1.4C254.2,14,255.5,14.5,256.4,15.4z M228.4,134.4c5.9-3.4,10.5-8,13.8-13.8
		c3.3-5.8,5-12.4,5-19.6c0-7.2-1.7-13.7-5-19.6c-3.3-5.8-7.9-10.4-13.8-13.7c-5.9-3.3-12.4-5-19.7-5c-7.3,0-13.8,1.7-19.7,5
		c-5.9,3.3-10.5,7.9-13.9,13.7c-3.4,5.8-5.1,12.4-5.1,19.6c0,7.2,1.7,13.7,5.1,19.6c3.4,5.8,8,10.4,13.9,13.8
		c5.9,3.4,12.4,5.1,19.7,5.1C216,139.4,222.6,137.7,228.4,134.4z"/>
	<path class="st1" d="M352.4,59.2c6.7,3.9,12,9.4,15.7,16.4c3.8,7,5.6,14.9,5.6,23.8c0,1.5-0.5,2.7-1.4,3.5
		c-0.9,0.9-2.2,1.3-3.7,1.3h-73.7c0.4,6.8,2.2,12.8,5.5,18.1c3.3,5.3,7.7,9.5,13.2,12.4c5.5,3,11.7,4.5,18.5,4.5
		c4.6,0,9.2-0.8,13.8-2.3c4.6-1.5,8.3-3.6,11-6.1c1.2-0.9,2.4-1.4,3.7-1.4c1.3,0,2.3,0.3,3.2,1c1.3,1,1.9,2.2,1.9,3.6
		c0,1.1-0.5,2.2-1.6,3.3c-3.8,3.3-8.6,6.1-14.7,8.2c-6,2.2-11.8,3.3-17.3,3.3c-9.3,0-17.5-2-24.7-6.1c-7.2-4.1-12.9-9.7-17-17
		c-4.1-7.3-6.2-15.5-6.2-24.6c0-9.3,1.9-17.5,5.7-24.8c3.8-7.3,9.1-12.9,16-17c6.9-4.1,14.7-6.1,23.5-6.1
		C338,53.3,345.6,55.3,352.4,59.2z M306.3,71.8c-6.3,5.9-10,13.8-11.2,23.5h68.4c-0.8-9.7-4.3-17.6-10.6-23.5
		c-6.2-5.9-14.1-8.9-23.6-8.9C320.3,62.9,312.5,65.9,306.3,71.8z"/>
	<path class="st1" d="M409.4,145.5c-6.4-2.3-11.8-5.9-16-10.7c-0.8-0.9-1.2-1.9-1.2-3.1c0-1.6,0.8-2.9,2.3-3.9
		c0.7-0.6,1.7-0.9,3-0.9c1.6,0,3,0.6,4,1.9c5.9,7,15.3,10.5,28.3,10.5c9.3,0,16.1-1.6,20.5-4.8c4.4-3.2,6.6-7.3,6.6-12.4
		c0-9-9-14.8-26.9-17.3c-11.4-1.6-20-4.6-25.8-9.1c-5.8-4.5-8.7-9.8-8.7-16.1c0-8.3,3.1-14.8,9.4-19.5c6.3-4.6,14.4-6.9,24.5-6.9
		c14.8,0,26,5.1,33.6,15.4c0.7,0.8,1.1,1.8,1.1,2.9c0,1.6-0.9,2.9-2.8,3.9c-1.2,0.5-2.1,0.7-2.6,0.7c-1.8,0-3.2-0.7-4.4-2.2
		c-6-7.4-14.4-11.2-25.2-11.2c-7.2,0-12.8,1.5-17.1,4.5c-4.2,3-6.3,6.8-6.3,11.2c0,4.6,2,8.2,6.1,11s10.8,4.8,20.3,6.2
		c12.4,1.7,21.4,4.9,26.8,9.7c5.5,4.7,8.2,10.5,8.2,17.2c0,5.3-1.7,9.9-5.2,13.9c-3.5,4-8.1,7.1-13.8,9.3c-5.7,2.2-12,3.3-18.8,3.3
		C422.5,149,415.9,147.9,409.4,145.5z"/>
	<path class="st1" d="M495.9,146.5c-1-1-1.5-2.2-1.5-3.7V59.3c0-1.6,0.5-2.9,1.5-3.8c1-0.9,2.3-1.4,3.8-1.4c1.6,0,2.9,0.5,3.9,1.4
		c0.9,0.9,1.4,2.2,1.4,3.8v83.6c0,1.5-0.5,2.7-1.4,3.7c-0.9,1-2.2,1.5-3.9,1.5C498.1,148,496.9,147.5,495.9,146.5z"/>
	<path class="st1" d="M594.3,58.8c0,0.6-0.1,1-0.2,1.4c-0.4,1.3-0.9,2.1-1.7,2.7c-0.8,0.5-1.8,0.8-3.1,0.8c-1.1,0-2.4-0.1-4.1-0.3
		c-1.7-0.2-3.1-0.3-4.3-0.3c-5.9,0-11.1,1.2-15.7,3.6c-4.6,2.4-8.2,5.7-10.7,10c-2.6,4.2-3.9,9-3.9,14.2v52.2c0,1.5-0.5,2.7-1.4,3.7
		c-0.9,1-2.2,1.5-3.9,1.5c-1.5,0-2.8-0.5-3.8-1.5c-1-1-1.5-2.2-1.5-3.7V59.3c0-1.6,0.5-2.9,1.5-3.8c1-0.9,2.3-1.4,3.8-1.4
		c1.6,0,2.9,0.5,3.9,1.4c0.9,0.9,1.4,2.2,1.4,3.8v10.6c3.4-5.3,7.7-9.4,13-12.4c5.3-3,11-4.5,17.2-4.5
		C589.8,53.1,594.3,55,594.3,58.8z"/>
	<path class="st1" d="M669.5,59.2c6.7,3.9,12,9.4,15.7,16.4c3.8,7,5.6,14.9,5.6,23.8c0,1.5-0.5,2.7-1.4,3.5
		c-0.9,0.9-2.2,1.3-3.7,1.3H612c0.4,6.8,2.2,12.8,5.5,18.1c3.3,5.3,7.7,9.5,13.2,12.4c5.5,3,11.7,4.5,18.5,4.5
		c4.6,0,9.2-0.8,13.8-2.3c4.6-1.5,8.3-3.6,11-6.1c1.2-0.9,2.4-1.4,3.7-1.4c1.3,0,2.3,0.3,3.2,1c1.3,1,1.9,2.2,1.9,3.6
		c0,1.1-0.5,2.2-1.6,3.3c-3.8,3.3-8.6,6.1-14.7,8.2c-6,2.2-11.8,3.3-17.3,3.3c-9.3,0-17.5-2-24.7-6.1c-7.2-4.1-12.9-9.7-17-17
		c-4.1-7.3-6.2-15.5-6.2-24.6c0-9.3,1.9-17.5,5.7-24.8c3.8-7.3,9.1-12.9,16-17c6.9-4.1,14.7-6.1,23.5-6.1
		C655.1,53.3,662.7,55.3,669.5,59.2z M623.4,71.8c-6.3,5.9-10,13.8-11.2,23.5h68.4c-0.8-9.7-4.3-17.6-10.6-23.5
		c-6.2-5.9-14.1-8.9-23.6-8.9C637.4,62.9,629.7,65.9,623.4,71.8z"/>
	<path class="st1" d="M761.1,139c1,1,1.5,2.3,1.5,3.9c0,1.5-0.5,2.7-1.5,3.7c-1,1-2.3,1.5-4,1.5h-4c-6.4,0-12.2-1.4-17.2-4.3
		c-5-2.9-9-6.8-11.8-11.8c-2.8-5-4.2-10.6-4.2-16.9V66.8h-13.7c-1.4,0-2.6-0.4-3.4-1.3c-0.9-0.9-1.3-2-1.3-3.3s0.4-2.5,1.3-3.3
		c0.9-0.9,2-1.3,3.4-1.3h13.7v-28c0-1.6,0.5-2.9,1.5-3.9c1-1,2.3-1.5,3.8-1.5c1.6,0,3,0.5,4,1.5c1,1,1.5,2.3,1.5,3.9v28h23.2
		c1.4,0,2.6,0.4,3.4,1.3c0.9,0.9,1.3,2,1.3,3.3s-0.4,2.5-1.3,3.3c-0.9,0.9-2,1.3-3.4,1.3h-23.2v48.2c0,6.6,2.1,12,6.3,16.2
		c4.2,4.2,9.7,6.3,16.4,6.3h3.9C758.8,137.5,760.1,138,761.1,139z"/>
	<path class="st1" d="M847.5,59.2c6.7,3.9,12,9.4,15.7,16.4c3.8,7,5.6,14.9,5.6,23.8c0,1.5-0.5,2.7-1.4,3.5
		c-0.9,0.9-2.2,1.3-3.7,1.3H790c0.4,6.8,2.2,12.8,5.5,18.1c3.3,5.3,7.7,9.5,13.2,12.4c5.5,3,11.7,4.5,18.5,4.5
		c4.6,0,9.2-0.8,13.8-2.3c4.6-1.5,8.3-3.6,11-6.1c1.2-0.9,2.4-1.4,3.7-1.4c1.3,0,2.3,0.3,3.2,1c1.3,1,1.9,2.2,1.9,3.6
		c0,1.1-0.5,2.2-1.6,3.3c-3.8,3.3-8.6,6.1-14.7,8.2c-6,2.2-11.8,3.3-17.3,3.3c-9.3,0-17.5-2-24.7-6.1c-7.2-4.1-12.9-9.7-17-17
		c-4.1-7.3-6.2-15.5-6.2-24.6c0-9.3,1.9-17.5,5.7-24.8c3.8-7.3,9.1-12.9,16-17c6.9-4.1,14.7-6.1,23.5-6.1
		C833.1,53.3,840.7,55.3,847.5,59.2z M801.4,71.8c-6.3,5.9-10,13.8-11.2,23.5h68.4c-0.8-9.7-4.3-17.6-10.6-23.5
		c-6.2-5.9-14.1-8.9-23.6-8.9C815.4,62.9,807.7,65.9,801.4,71.8z"/>
	<path class="st1" d="M906.3,142.8c-7.3-4.2-13-9.9-17.1-17.2c-4.2-7.3-6.2-15.4-6.2-24.4c0-9,1.9-17.2,5.8-24.4
		c3.9-7.3,9.3-13,16.2-17.2c6.9-4.2,14.7-6.3,23.2-6.3c7.5,0,14.4,1.4,20.6,4.3c6.2,2.9,11.6,7.1,16.2,12.7c0.8,1.1,1.2,2.1,1.2,2.9
		c0,1.6-0.8,2.9-2.5,3.8c-0.8,0.7-1.8,1-2.8,1c-1.6,0-3-0.7-4-2.1c-7.5-8.7-17.1-13-28.7-13c-6.8,0-12.8,1.6-18.1,4.9
		c-5.3,3.3-9.4,7.8-12.2,13.6s-4.3,12.4-4.3,19.7c0,7.2,1.6,13.7,4.7,19.6s7.6,10.4,13.2,13.7c5.6,3.3,12.1,5,19.3,5
		c10.3,0,18.6-2.8,24.8-8.4c1.1-1,2.3-1.5,3.7-1.5c1.3,0,2.3,0.4,3.2,1.2c1.2,1,1.8,2.3,1.8,3.8c0,1.3-0.5,2.3-1.4,3.1
		c-4.1,3.7-8.9,6.5-14.4,8.5c-5.5,2-11.4,3-17.6,3C921.7,149,913.6,146.9,906.3,142.8z"/>
	<path class="st2" d="M121.1,49.1c0.7,0.7,1.1,1.7,1.1,2.9v62.9v0.3c-0.1,6.7-1.8,12.8-5.1,18.3c-3.3,5.5-7.8,9.8-13.5,12.9
		c-5.7,3.1-11.9,4.6-18.8,4.6c-7.1,0-13.4-1.6-19.2-4.8c-5.7-3.2-10.2-7.6-13.5-13.1c-3.3-5.6-4.9-11.8-4.9-18.7
		c0-6.8,1.6-13,4.9-18.6c3.3-5.6,7.7-10,13.5-13.1c5.7-3.2,12.1-4.8,19.2-4.8c6.3,0,12.1,1.3,17.2,4c5.1,2.7,9.2,6.3,12.1,10.9V52
		c0-1.2,0.4-2.2,1.1-2.9c0.8-0.7,1.7-1,2.9-1C119.4,48.1,120.4,48.4,121.1,49.1z M99.8,139.8c4.5-2.6,8-6.1,10.5-10.5
		c2.5-4.4,3.8-9.4,3.8-14.9s-1.3-10.5-3.8-14.9c-2.5-4.4-6.1-7.9-10.5-10.5c-4.5-2.5-9.5-3.8-15-3.8c-5.5,0-10.5,1.3-15,3.8
		c-4.5,2.5-8,6-10.6,10.5c-2.6,4.4-3.9,9.4-3.9,14.9s1.3,10.5,3.9,14.9c2.6,4.4,6.1,8,10.6,10.5c4.5,2.6,9.5,3.9,15,3.9
		C90.3,143.6,95.3,142.3,99.8,139.8z"/>
</g>
<g>
</g>
<g>
</g>
<g>
</g>
<g>
</g>
<g>
</g>
</svg>
