<svg xmlns="http://www.w3.org/2000/svg" xmlns:xlink="http://www.w3.org/1999/xlink" version="1.1" width="32" height="32" style=""><rect id="backgroundrect" width="100%" height="100%" x="0" y="0" fill="none" stroke="none"/>

<g class="currentLayer" style=""><title>Layer 1</title><path fill="#ffffff" d="M23.52 8.48c-0.48-0.48-1.227-0.48-1.707 0l-5.813 5.813-5.813-5.813c-0.48-0.48-1.227-0.48-1.707 0s-0.48 1.227 0 1.707l5.813 5.813-5.813 5.813c-0.48 0.48-0.48 1.227 0 1.707 0.24 0.24 0.533 0.347 0.853 0.347s0.613-0.107 0.853-0.347l5.813-5.813 5.813 5.813c0.24 0.24 0.533 0.347 0.853 0.347s0.613-0.107 0.853-0.347c0.48-0.48 0.48-1.227 0-1.707l-5.813-5.813 5.813-5.813c0.453-0.48 0.453-1.227 0-1.707z" id="svg_1" class="selected" fill-opacity="1"/></g></svg>