<?xml version="1.0" encoding="utf-8"?>
<!-- Generated by IcoMoon.io -->
<!DOCTYPE svg PUBLIC "-//W3C//DTD SVG 1.1//EN" "http://www.w3.org/Graphics/SVG/1.1/DTD/svg11.dtd">
<svg version="1.1" xmlns="http://www.w3.org/2000/svg" xmlns:xlink="http://www.w3.org/1999/xlink" width="32" height="32" viewBox="0 0 32 32">
<path fill="#092a5e" d="M23.52 8.48c-0.48-0.48-1.227-0.48-1.707 0l-5.813 5.813-5.813-5.813c-0.48-0.48-1.227-0.48-1.707 0s-0.48 1.227 0 1.707l5.813 5.813-5.813 5.813c-0.48 0.48-0.48 1.227 0 1.707 0.24 0.24 0.533 0.347 0.853 0.347s0.613-0.107 0.853-0.347l5.813-5.813 5.813 5.813c0.24 0.24 0.533 0.347 0.853 0.347s0.613-0.107 0.853-0.347c0.48-0.48 0.48-1.227 0-1.707l-5.813-5.813 5.813-5.813c0.453-0.48 0.453-1.227 0-1.707z"></path>
</svg>
